# xmcd
#
# Track frame offsets: 
#        150
#        11253
#        20972
#        29387
#        42048
#        52476
#        63716
#        74102
#        84750
#        94618
#        104338
#        113975
#        124089
#        137730
#        146637
#        156340
#        167763
#        179394
#        189328
#        199716
#        212910
#        224503
#        233865
#        245055
#
# Disc length: 3399 seconds
#
# Revision: 0
# Processed by: cddbd v1.5.2PL0 Copyright (c) Steve Scherf et al.
# Submitted via: ExactAudioCopy v1.0b3
#
DISCID=6e0d4518
DTITLE=Various Artist - Hillbilly Bop, Boogie and The Honky Tonk Blues Vol 4 19
DTITLE=56-1957 [Disc 2]
DYEAR=2010
DGENRE=Hillbilly
TTITLE0=Henderson, Johnny - Any Old Port In A Storm
TTITLE1=Rich, George - Drivin' Away My Blues
TTITLE2=Counts, Roy with The Okla. Play Boys - I Ain't Got No Blues
TTITLE3=Holloway, Alden and His Prairie Ramblers - Red Rose Of Arkansas
TTITLE4=Brown, Kenny And The Arkansas Ramblers - Passing Fancy
TTITLE5=Holland, Tex - T For Texas
TTITLE6=Goff, Glen and Edward Davidson - Livin' For Your Lovin'
TTITLE7=Morris, Jack -  Music By The Night Owls - Four Wheel Bungalow
TTITLE8=McCall, Norma with Smiley Davis' Band - The Next Time I See Yo
TTITLE8=u
TTITLE9=Luke, Billie And His Southern Serenaders - Be On The Lookout
TTITLE10=Snyder, Jimmy And Western Band - Don't Slam The Door
TTITLE11=Wilson, Dallas And His Western Troubadors - Hi-Steppin' Daddy
TTITLE12=Lee, Lucky - Mistreaded Blues
TTITLE13=Buchanan, Wes - Give Some Love My Way
TTITLE14=Morris, Jack - My Pony Wants To Go
TTITLE15=Hobbs, Bud And His Trail Herders - Mean, Mean, Mean
TTITLE16=Vandagriff, Earney - You Can't Come In
TTITLE17=Ramblin' Everett - Music By Sandy Stanton and His Fable Recordi
TTITLE17=ng Stars - Cincinnattit Woman
TTITLE18=Anderson, Les "Carrot Top" with Tex Atchison and His Orchestra 
TTITLE18=/ Thirty Two Riverside Drive
TTITLE19=Kelly, Roy and The Westernairs - Dragen-It-Boogie
TTITLE20=Parker, Pauline And Marilyn Kaye and The Texarkana Hillbillies 
TTITLE20=/ Love Fever
TTITLE21=Miller, Dick - Walkin' The Floor Over You
TTITLE22=Sage Brush Willie and His Cactus Boys - Black Berry Boogie
TTITLE23=Taylor, Morris and His Sierra Melody Gang - Look-A-What (My Bab
TTITLE23=y's Done To Me)
EXTD=
EXTT0=
EXTT1=
EXTT2=
EXTT3=
EXTT4=
EXTT5=
EXTT6=
EXTT7=
EXTT8=
EXTT9=
EXTT10=
EXTT11=
EXTT12=
EXTT13=
EXTT14=
EXTT15=
EXTT16=
EXTT17=
EXTT18=
EXTT19=
EXTT20=
EXTT21=
EXTT22=
EXTT23=
PLAYORDER=
